<?xml version="1.0" encoding="UTF-8" standalone="no"?>
<svg width="101px" height="100px" viewBox="0 0 101 100" version="1.1" xmlns="http://www.w3.org/2000/svg" xmlns:xlink="http://www.w3.org/1999/xlink" xmlns:sketch="http://www.bohemiancoding.com/sketch/ns">
    <!-- Generator: Sketch 3.1 (8751) - http://www.bohemiancoding.com/sketch -->
    <title>Group</title>
    <desc>Created with Sketch.</desc>
    <defs></defs>
    <g id="Onboarding" stroke="none" stroke-width="1" fill="none" fill-rule="evenodd" sketch:type="MSPage">
        <g id="Onboarding---Dashboard-Empty" sketch:type="MSArtboardGroup" transform="translate(-577.000000, -587.000000)">
            <g id="Push-to-repo" sketch:type="MSLayerGroup" transform="translate(40.000000, 365.000000)">
                <g id="illustration" transform="translate(163.000000, 222.000000)" sketch:type="MSShapeGroup">
                    <g id="Group" transform="translate(375.000000, 0.000000)">
                        <path d="M99.809,49.905 C99.809,77.467 77.54,99.808 50.064,99.808 C22.586,99.808 0.316,77.467 0.316,49.905 C0.314,22.343 22.586,0 50.062,0 C77.54,0 99.809,22.343 99.809,49.905 L99.809,49.905 Z" id="Shape" fill="#FFFFFF"></path>
                        <g id="Shape">
                            <path d="M49.554,100 C22.124,100 -0.191,77.615 -0.191,50.099 C-0.191,22.581 22.124,0.192 49.554,0.192 C76.984,0.192 99.3,22.582 99.3,50.099 C99.3,77.615 76.982,100 49.554,100 L49.554,100 Z M49.554,5.255 C24.908,5.255 4.854,25.371 4.854,50.099 C4.854,74.822 24.908,94.943 49.554,94.943 C74.201,94.943 94.253,74.822 94.253,50.099 C94.253,25.371 74.201,5.255 49.554,5.255 L49.554,5.255 Z" fill="#3B4655"></path>
                            <path d="M49.523,21.292 C51.868,21.292 54.661,21.638 57.276,22.13 L57.276,14.07 C57.276,12.906 52.543,11.609 49.448,11.609 C46.348,11.609 41.784,12.906 41.784,14.07 L41.784,22.149 C44.365,21.645 47.149,21.292 49.523,21.292 L49.523,21.292 Z" opacity="0.7" fill="#3B4655"></path>
                            <g transform="translate(12.000000, 25.000000)">
                                <path d="M39.058,29.562 L39.526,21.002 L37.565,11.229 L35.428,21.002 L35.824,29.541 L37.386,42.223 C37.478,42.244 37.571,42.267 37.658,42.283 L39.058,29.562 L39.058,29.562 Z"></path>
                                <path d="M12.023,44.026 C15.418,44.381 28.18,49.847 40.511,42.743 L37.474,42.356 C33.495,41.464 26.079,35.97 25.676,35.594 C25.644,35.486 13.626,23.27 -0.445,36.143 C0.019,37.795 0.587,39.398 1.25,40.955 C4.578,39.599 8.428,43.653 12.023,44.026 L12.023,44.026 Z" opacity="0.65" fill="#3B4655"></path>
                                <path d="M1.324,41.137 C1.324,41.137 1.327,41.134 1.33,41.134 C1.309,41.086 1.285,41.036 1.264,40.986 C1.285,41.036 1.302,41.086 1.324,41.137 L1.324,41.137 Z" fill="#B93D8E"></path>
                                <path d="M54.071,12.267 L54.071,3.842 C54.071,2.678 44.069,0.001 37.523,0.001 C30.976,0.001 21.322,2.678 21.322,3.842 L21.322,12.162 C28.986,6.673 37.385,4.218 37.385,4.218 C37.415,4.211 46.345,6.687 54.071,12.267 L54.071,12.267 Z" fill="#3B4655"></path>
                                <path d="M58.104,28.87 C55.625,29.345 52.721,32.915 48.962,36.527 C50.444,31.209 53.137,25.241 58.012,20.099 C56.701,18.902 55.362,17.816 54.033,16.829 L54.033,16.805 C49.136,13.178 43.468,10.066 37.591,8.355 L37.585,8.359 C35.156,8.993 32.764,10.133 30.509,11.211 C25.655,13.527 21.087,16.461 17.102,20.089 C17.099,20.092 17.096,20.096 17.093,20.1 C21.439,24.513 24.023,30.067 25.572,35.253 C25.606,35.368 25.647,35.486 25.679,35.595 C26.082,35.971 26.498,36.346 26.917,36.703 C29.971,39.308 33.424,41.457 37.402,42.348 L37.386,42.224 L35.824,29.542 L35.428,21.003 L37.566,11.23 L39.526,21.003 L39.058,29.563 L37.661,42.284 L37.649,42.395 L40.513,42.744 C35.871,44.887 28.626,46.053 21.116,42.443 C18.085,40.99 15.151,39.606 11.756,39.25 C8.161,38.878 4.58,39.6 1.254,40.956 L1.252,40.956 C1.257,40.967 1.263,40.976 1.266,40.986 C1.287,41.037 1.313,41.087 1.332,41.134 C7.758,55.805 22.793,65.37 38.769,64.883 C54.437,64.404 68.683,54.276 74.388,39.639 C74.7,38.842 74.982,38.04 75.241,37.223 C69.847,33.244 61.377,28.242 58.104,28.87 L58.104,28.87 Z" fill="#3B4655"></path>
                                <path d="M58.104,28.87 C61.377,28.242 55.626,29.345 58.104,28.87 L58.104,28.87 L58.104,28.87 Z" fill="#3B4655"></path>
                            </g>
                        </g>
                    </g>
                </g>
            </g>
        </g>
    </g>
</svg>